HIERARCHY
ROOT Hips
{
  OFFSET 5.84602e-005 68.8428 3.50346
  CHANNELS 6 Xposition Yposition Zposition Zrotation Xrotation Yrotation
  JOINT Spine
  {
    OFFSET 0 8.597 -4.6522
    CHANNELS 3 Zrotation Xrotation Yrotation
    JOINT Spine1
    {
      OFFSET 0 7.8454 0.4098
      CHANNELS 3 Zrotation Xrotation Yrotation
      JOINT Spine2
      {
        OFFSET 0 9.7078 -2.1609
        CHANNELS 3 Zrotation Xrotation Yrotation
        JOINT Neck
        {
          OFFSET 0 21.8761 -0.4549
          CHANNELS 3 Zrotation Xrotation Yrotation
          JOINT Head
          {
            OFFSET 0 12.3537 3.3602
            CHANNELS 3 Zrotation Xrotation Yrotation
            End Site
            {
              OFFSET 0.0001 18.9506 0.5657
            }
          }
        }
        JOINT LeftShoulder
        {
          OFFSET 2.2086 21.1115 7.2329
          CHANNELS 3 Zrotation Xrotation Yrotation
          JOINT LeftArm
          {
            OFFSET 13.1193 3.0282 -4.8998
            CHANNELS 3 Zrotation Xrotation Yrotation
            JOINT LeftForeArm
            {
              OFFSET 27.4081 -0.0973053 -0.2375
              CHANNELS 3 Zrotation Xrotation Yrotation
              JOINT LeftHand
              {
                OFFSET 22.8641 0.0662994 -0.1369
                CHANNELS 3 Zrotation Xrotation Yrotation
                JOINT LeftHandIndex1
                {
                  OFFSET 8.8614 0.775009 2.4612
                  CHANNELS 3 Zrotation Xrotation Yrotation
                  JOINT LeftHandIndex2
                  {
                    OFFSET 3.3146 -0.808304 0.5841
                    CHANNELS 3 Zrotation Xrotation Yrotation
                    JOINT LeftHandIndex3
                    {
                      OFFSET 2.2628 -0.552002 0.3989
                      CHANNELS 3 Zrotation Xrotation Yrotation
                      End Site
                      {
                        OFFSET 1.6102 -0.4807 0.2612
                      }
                    }
                  }
                }
                JOINT LeftHandMiddle1
                {
                  OFFSET 8.9937 0.895004 0.2143
                  CHANNELS 3 Zrotation Xrotation Yrotation
                  JOINT LeftHandMiddle2
                  {
                    OFFSET 4.0984 0.0113983 -0.0242
                    CHANNELS 3 Zrotation Xrotation Yrotation
                    JOINT LeftHandMiddle3
                    {
                      OFFSET 2.2716 0.00689697 -0.0138001
                      CHANNELS 3 Zrotation Xrotation Yrotation
                      End Site
                      {
                        OFFSET 2.0404 -0.1441 0.0027
                      }
                    }
                  }
                }
                JOINT LeftHandRing1
                {
                  OFFSET 8.5234 0.597198 -2.0164
                  CHANNELS 3 Zrotation Xrotation Yrotation
                  JOINT LeftHandRing2
                  {
                    OFFSET 3.7188 -0.188293 -0.2328
                    CHANNELS 3 Zrotation Xrotation Yrotation
                    JOINT LeftHandRing3
                    {
                      OFFSET 2.1191 -0.106598 -0.1332
                      CHANNELS 3 Zrotation Xrotation Yrotation
                      End Site
                      {
                        OFFSET 1.8737 -0.2304 -0.0886
                      }
                    }
                  }
                }
                JOINT LeftHandPinky1
                {
                  OFFSET 7.9094 -0.601089 -3.4825
                  CHANNELS 3 Zrotation Xrotation Yrotation
                  JOINT LeftHandPinky2
                  {
                    OFFSET 2.2874 -0.477005 -0.6314
                    CHANNELS 3 Zrotation Xrotation Yrotation
                    JOINT LeftHandPinky3
                    {
                      OFFSET 1.6774 -0.349396 -0.4633
                      CHANNELS 3 Zrotation Xrotation Yrotation
                      End Site
                      {
                        OFFSET 1.4888 -0.4091 -0.3416
                      }
                    }
                  }
                }
                JOINT LeftHandThumb1
                {
                  OFFSET 1.833 -1.3875 1.3896
                  CHANNELS 3 Zrotation Xrotation Yrotation
                  JOINT LeftHandThumb2
                  {
                    OFFSET 3.4129 -1.121 2.5732
                    CHANNELS 3 Zrotation Xrotation Yrotation
                    JOINT LeftHandThumb3
                    {
                      OFFSET 2.2474 -0.804199 1.6192
                      CHANNELS 3 Zrotation Xrotation Yrotation
                      End Site
                      {
                        OFFSET 1.6527 -0.5689 1.1317
                      }
                    }
                  }
                }
              }
            }
          }
        }
        JOINT RightShoulder
        {
          OFFSET -2.2086 21.1115 7.2329
          CHANNELS 3 Zrotation Xrotation Yrotation
          JOINT RightArm
          {
            OFFSET -13.1216 3.0287 -4.9007
            CHANNELS 3 Zrotation Xrotation Yrotation
            JOINT RightForeArm
            {
              OFFSET -27.4081 -0.0973053 -0.2375
              CHANNELS 3 Zrotation Xrotation Yrotation
              JOINT RightHand
              {
                OFFSET -22.8641 0.0664063 -0.1369
                CHANNELS 3 Zrotation Xrotation Yrotation
                JOINT RightHandIndex1
                {
                  OFFSET -8.8614 0.774994 2.4612
                  CHANNELS 3 Zrotation Xrotation Yrotation
                  JOINT RightHandIndex2
                  {
                    OFFSET -3.3146 -0.808304 0.5841
                    CHANNELS 3 Zrotation Xrotation Yrotation
                    JOINT RightHandIndex3
                    {
                      OFFSET -2.2628 -0.552002 0.3989
                      CHANNELS 3 Zrotation Xrotation Yrotation
                      End Site
                      {
                        OFFSET -1.6102 -0.4807 0.2612
                      }
                    }
                  }
                }
                JOINT RightHandMiddle1
                {
                  OFFSET -8.9937 0.894989 0.2143
                  CHANNELS 3 Zrotation Xrotation Yrotation
                  JOINT RightHandMiddle2
                  {
                    OFFSET -4.0984 0.0113983 -0.0242
                    CHANNELS 3 Zrotation Xrotation Yrotation
                    JOINT RightHandMiddle3
                    {
                      OFFSET -2.2716 0.00691223 -0.0138001
                      CHANNELS 3 Zrotation Xrotation Yrotation
                      End Site
                      {
                        OFFSET -2.0404 -0.1441 0.0027
                      }
                    }
                  }
                }
                JOINT RightHandRing1
                {
                  OFFSET -8.5234 0.597198 -2.0164
                  CHANNELS 3 Zrotation Xrotation Yrotation
                  JOINT RightHandRing2
                  {
                    OFFSET -3.7188 -0.188309 -0.2328
                    CHANNELS 3 Zrotation Xrotation Yrotation
                    JOINT RightHandRing3
                    {
                      OFFSET -2.1191 -0.106598 -0.1332
                      CHANNELS 3 Zrotation Xrotation Yrotation
                      End Site
                      {
                        OFFSET -1.8737 -0.2304 -0.0886
                      }
                    }
                  }
                }
                JOINT RightHandPinky1
                {
                  OFFSET -7.9094 -0.601105 -3.4825
                  CHANNELS 3 Zrotation Xrotation Yrotation
                  JOINT RightHandPinky2
                  {
                    OFFSET -2.2874 -0.477005 -0.6314
                    CHANNELS 3 Zrotation Xrotation Yrotation
                    JOINT RightHandPinky3
                    {
                      OFFSET -1.6774 -0.349396 -0.4633
                      CHANNELS 3 Zrotation Xrotation Yrotation
                      End Site
                      {
                        OFFSET -1.4888 -0.4091 -0.3416
                      }
                    }
                  }
                }
                JOINT RightHandThumb1
                {
                  OFFSET -1.833 -1.38751 1.3896
                  CHANNELS 3 Zrotation Xrotation Yrotation
                  JOINT RightHandThumb2
                  {
                    OFFSET -3.41299 -1.12099 2.5732
                    CHANNELS 3 Zrotation Xrotation Yrotation
                    JOINT RightHandThumb3
                    {
                      OFFSET -2.24741 -0.804108 1.6192
                      CHANNELS 3 Zrotation Xrotation Yrotation
                      End Site
                      {
                        OFFSET -1.6527 -0.5689 1.1317
                      }
                    }
                  }
                }
              }
            }
          }
        }
      }
    }
  }
  JOINT RightUpLeg
  {
    OFFSET -9.1966 3.8861 -0.7581
    CHANNELS 3 Zrotation Xrotation Yrotation
    JOINT RightLeg
    {
      OFFSET -0.7359 -41.0265 0
      CHANNELS 3 Zrotation Xrotation Yrotation
      JOINT RightFoot
      {
        OFFSET 0 -40.2855 0
        CHANNELS 3 Zrotation Xrotation Yrotation
        JOINT RightToeBase
        {
          OFFSET 0 -5.6122 11.7359
          CHANNELS 3 Zrotation Xrotation Yrotation
          End Site
          {
            OFFSET 0 0 7.8731
          }
        }
      }
    }
  }
  JOINT LeftUpLeg
  {
    OFFSET 9.1965 3.8864 -0.7581
    CHANNELS 3 Zrotation Xrotation Yrotation
    JOINT LeftLeg
    {
      OFFSET 0.7359 -41.0268 0
      CHANNELS 3 Zrotation Xrotation Yrotation
      JOINT LeftFoot
      {
        OFFSET 0 -40.2855 0
        CHANNELS 3 Zrotation Xrotation Yrotation
        JOINT LeftToeBase
        {
          OFFSET 0 -5.6122 11.7359
          CHANNELS 3 Zrotation Xrotation Yrotation
          End Site
          {
            OFFSET 0 0 7.8731
          }
        }
      }
    }
  }
}
MOTION
Frames:	6
Frame Time:	0.0333333
-1.08088 3.89549 -48.846 -179.651 88.9936 -0.355027 -0.0349408 1.69089 -0.277721 -0.0617177 3.38194 -0.554771 -0.0617177 3.38191 -0.554771 -8.62226e-006 43.9988 1.39201e-005 -2.15729e-006 -79.3071 -2.25535e-006 -15.6015 -4.00435 21.7205 -0.0908883 1.9893 -78.3606 -18.6698 -6.1787 -54.685 -37.7927 -33.5168 -40.5765 -5.96354e-016 0 7.95139e-016 -7.95139e-016 1.59028e-015 7.95139e-016 -1.19271e-015 1.59028e-015 7.95139e-016 -5.96354e-016 0 7.95139e-016 -0.0146042 -8.83882e-005 -7.92651e-007 -4.57205e-015 3.18055e-015 -0 -5.96354e-016 0 7.95139e-016 -0.0187858 -0.00117706 5.9673e-005 -2.18663e-015 3.18055e-015 -1.59028e-015 -5.96354e-016 0 7.95139e-016 -0.012272 -0.00324792 0.000675566 -7.72715e-007 3.04378e-007 -2.11564e-007 -5.96354e-016 0 7.95139e-016 -7.95139e-016 1.59028e-015 7.95139e-016 -1.19271e-015 1.59028e-015 7.95139e-016 15.5409 -4.2533 -21.7002 0.0514482 1.98608 78.1808 18.5626 -6.35563 54.3141 38.4043 -33.1471 40.7037 3.97569e-016 -4.77083e-015 -1.59028e-015 -9.14409e-015 0 1.59028e-015 -3.57812e-015 -4.77083e-015 2.38542e-015 3.97569e-016 -4.77083e-015 -1.59028e-015 0.0149862 -9.06506e-005 -1.17524e-006 3.97569e-015 -1.59028e-015 4.77083e-015 3.97569e-016 -4.77083e-015 -1.59028e-015 0.0189678 -0.0011902 -6.01423e-005 3.97569e-016 3.18055e-015 -0 3.97569e-016 -4.77083e-015 -1.59028e-015 0.0123128 -0.00325987 -0.000680701 9.74045e-015 1.59028e-015 7.95139e-016 3.97569e-016 -4.77083e-015 -1.59028e-015 -9.14409e-015 0 1.59028e-015 -3.57812e-015 -4.77083e-015 2.38542e-015 -45.9518 -26.5782 -33.5193 -31.0826 68.2575 32.6458 -30.6603 42.9999 31.334 -5.46658e-016 -1.98785e-016 3.18055e-015 45.9452 -26.5816 33.484 31.0011 68.2754 -32.585 30.6328 43.0351 -31.3007 2.28032e-008 7.61033e-009 1.93414e-007 
-1.08088 3.89549 -48.846 -179.651 88.9936 -0.355027 -0.0342399 1.57417 -0.277885 -0.0608729 3.14848 -0.555142 -0.0608727 3.14849 -0.555142 1.96525e-006 43.9985 1.12203e-006 1.08421e-006 -77.1594 8.54405e-007 -15.8191 -3.60612 21.4947 -0.0908846 1.98931 -78.3606 -18.5242 -6.37662 -54.0376 -38.1487 -33.2454 -40.7117 -2.00864e-006 9.99051e-008 -2.65698e-007 -2.49708e-006 -3.25062e-007 8.51509e-008 -2.00864e-006 9.99051e-008 -2.65698e-007 -2.00864e-006 9.99051e-008 -2.65698e-007 -0.0146512 -8.84787e-005 -9.51104e-008 -2.0078e-006 9.99441e-008 -2.65683e-007 -2.00864e-006 9.99051e-008 -2.65698e-007 -0.0187317 -0.00117378 5.8121e-005 -2.00757e-006 1.00017e-007 -2.65664e-007 -2.00864e-006 9.99051e-008 -2.65698e-007 -0.0123251 -0.00326228 0.000679252 -2.00794e-006 1.00133e-007 -2.65669e-007 -2.00864e-006 9.99051e-008 -2.65698e-007 -2.49708e-006 -3.25062e-007 8.51509e-008 -2.00864e-006 9.99051e-008 -2.65698e-007 15.7576 -3.8637 -21.4595 0.0514331 1.98609 78.1808 18.4194 -6.54827 53.6816 38.746 -32.8749 40.7992 3.2642e-006 7.57134e-008 -6.84846e-008 7.35503e-015 -1.59028e-015 -1.59028e-015 -1.11319e-014 0 -3.18055e-015 3.2642e-006 7.57134e-008 -6.84846e-008 0.0149601 -9.07223e-005 4.8643e-008 4.77083e-015 0 -1.59028e-015 3.2642e-006 7.57134e-008 -6.84846e-008 0.0190426 -0.00119419 -6.00143e-005 2.13852e-006 4.80744e-007 4.33953e-007 3.2642e-006 7.57134e-008 -6.84846e-008 0.012247 -0.00324188 -0.000672026 2.13763e-006 4.80459e-007 4.33862e-007 3.2642e-006 7.57134e-008 -6.84846e-008 7.35503e-015 -1.59028e-015 -1.59028e-015 -1.11319e-014 0 -3.18055e-015 -45.9518 -26.5782 -33.5193 -31.0826 68.2575 32.6458 -30.6603 42.9999 31.334 -5.46658e-016 -1.98785e-016 3.18055e-015 45.9452 -26.5816 33.484 31.0011 68.2754 -32.585 30.6328 43.0351 -31.3007 2.28032e-008 7.61033e-009 1.93414e-007 
-1.08088 3.89549 -48.846 -179.651 88.9936 -0.355027 -0.033611 1.46947 -0.278025 -0.0601155 2.9391 -0.55546 -0.0601153 2.93907 -0.55546 1.62445e-005 43.9986 -1.71672e-005 2.0108e-006 -75.2226 1.60692e-006 -16.013 -3.24826 21.2935 -0.0908995 1.98929 -78.3606 -18.3917 -6.55245 -53.4561 -38.4663 -33.0014 -40.8307 -1.27222e-014 0 7.95139e-016 -6.55989e-015 1.59028e-015 -0 -6.16232e-015 1.59028e-015 -1.59028e-015 -1.27222e-014 0 7.95139e-016 -0.0146194 -9.01422e-005 3.22974e-007 -1.98785e-016 -1.59028e-015 -0 -1.27222e-014 0 7.95139e-016 -0.0187315 -0.00117435 5.97621e-005 3.18055e-015 0 2.38542e-015 -1.27222e-014 0 7.95139e-016 -0.0123049 -0.00325628 0.000679658 -1.11319e-014 3.18055e-015 -3.18055e-015 -1.27222e-014 0 7.95139e-016 -6.55989e-015 1.59028e-015 -0 -6.16232e-015 1.59028e-015 -1.59028e-015 15.9505 -3.51359 -21.245 0.0514296 1.9861 78.1808 18.2892 -6.71943 53.1134 39.0511 -32.6304 40.8827 3.26462e-006 7.52449e-008 -6.61308e-008 1.63003e-014 1.59028e-015 7.95139e-016 3.26462e-006 7.52449e-008 -6.61308e-008 3.26462e-006 7.52449e-008 -6.61308e-008 0.0150361 -9.08879e-005 -5.19549e-007 3.26476e-006 7.52354e-008 -6.61433e-008 3.26462e-006 7.52449e-008 -6.61308e-008 0.0189526 -0.00118852 -5.93094e-005 3.2648e-006 7.52244e-008 -6.61777e-008 3.26462e-006 7.52449e-008 -6.61308e-008 0.0122366 -0.00324004 -0.000672809 3.26473e-006 7.52264e-008 -6.62375e-008 3.26462e-006 7.52449e-008 -6.61308e-008 1.63003e-014 1.59028e-015 7.95139e-016 3.26462e-006 7.52449e-008 -6.61308e-008 -45.9518 -26.5782 -33.5193 -31.0826 68.2575 32.6458 -30.6603 42.9999 31.334 -5.46658e-016 -1.98785e-016 3.18055e-015 45.9452 -26.5816 33.484 31.0011 68.2754 -32.585 30.6328 43.0351 -31.3007 2.28032e-008 7.61033e-009 1.93414e-007 
-1.08088 3.89549 -48.846 -179.651 88.9936 -0.355027 -0.0329824 1.36475 -0.278164 -0.0593599 2.72968 -0.555779 -0.0593599 2.72969 -0.555779 9.41195e-007 43.9986 8.14318e-006 6.3867e-007 -73.2773 7.90996e-007 -16.2056 -2.88976 21.0935 -0.0908922 1.98931 -78.3606 -18.2574 -6.72702 -52.8737 -38.7824 -32.7569 -40.9478 -7.62356e-007 2.75901e-007 -1.98988e-007 -1.24238e-006 -1.85208e-007 -6.51396e-008 7.95139e-015 0 2.38542e-015 -7.62356e-007 2.75901e-007 -1.98988e-007 -0.0146433 -8.83879e-005 -6.26772e-007 -1.98785e-015 -1.59028e-015 7.95139e-016 -7.62356e-007 2.75901e-007 -1.98988e-007 -0.0188105 -0.00118003 5.98022e-005 7.60033e-007 -2.7608e-007 1.98943e-007 -7.62356e-007 2.75901e-007 -1.98988e-007 -0.012283 -0.00325274 0.00067962 3.77691e-015 0 7.95139e-016 -7.62356e-007 2.75901e-007 -1.98988e-007 -1.24238e-006 -1.85208e-007 -6.51396e-008 7.95139e-015 0 2.38542e-015 16.142 -3.16276 -21.0316 0.0514244 1.9861 78.1808 18.1571 -6.88939 52.5445 39.3549 -32.3855 40.9644 3.26506e-006 7.48124e-008 -6.38175e-008 -1.19271e-015 1.59028e-015 -0 3.26506e-006 7.48124e-008 -6.38175e-008 3.26506e-006 7.48124e-008 -6.38175e-008 0.0150317 -9.18455e-005 -1.23998e-006 3.2652e-006 7.48032e-008 -6.383e-008 3.26506e-006 7.48124e-008 -6.38175e-008 0.0189731 -0.00119033 -5.9654e-005 3.26523e-006 7.47923e-008 -6.38644e-008 3.26506e-006 7.48124e-008 -6.38175e-008 0.0122716 -0.00324743 -0.000676844 3.26517e-006 7.47942e-008 -6.39245e-008 3.26506e-006 7.48124e-008 -6.38175e-008 -1.19271e-015 1.59028e-015 -0 3.26506e-006 7.48124e-008 -6.38175e-008 -45.9518 -26.5782 -33.5193 -31.0826 68.2575 32.6459 -30.6603 42.9999 31.334 -4.96962e-016 9.93923e-017 3.18055e-015 45.9452 -26.5816 33.484 31.0011 68.2754 -32.585 30.6328 43.0351 -31.3007 2.28032e-008 7.61033e-009 1.93414e-007 
-1.08088 3.89549 -48.846 -179.651 88.9936 -0.355027 -0.0323536 1.26002 -0.278298 -0.0586046 2.52021 -0.556086 -0.0586045 2.5202 -0.556086 -1.55541e-005 43.9985 3.05863e-005 -1.03235e-006 -71.3247 -1.14918e-006 -16.3969 -2.53046 20.8948 -0.0908923 1.98928 -78.3606 -18.1211 -6.90027 -52.2905 -39.0972 -32.5117 -41.0629 -3.26792e-006 -3.22337e-008 -1.286e-007 -6.36111e-015 -3.18055e-015 7.95139e-016 -3.26792e-006 -3.22337e-008 -1.286e-007 -3.26792e-006 -3.22337e-008 -1.286e-007 -0.0146573 -8.96436e-005 -3.18217e-007 -3.26805e-006 -3.2218e-008 -1.28601e-007 -3.26792e-006 -3.22337e-008 -1.286e-007 -0.0187532 -0.00117454 5.91801e-005 -2.53602e-006 5.12298e-007 -1.83067e-007 -3.26792e-006 -3.22337e-008 -1.286e-007 -0.0123081 -0.00325741 0.000678729 -4.02457e-006 2.35344e-007 -3.23912e-007 -3.26792e-006 -3.22337e-008 -1.286e-007 -6.36111e-015 -3.18055e-015 7.95139e-016 -3.26792e-006 -3.22337e-008 -1.286e-007 16.3323 -2.81113 -20.8195 0.0514397 1.98609 78.1808 18.0233 -7.05809 51.9747 39.6576 -32.1402 41.0444 3.77691e-015 0 2.38542e-015 5.96354e-016 0 -0 7.35503e-015 0 -1.59028e-015 3.77691e-015 0 2.38542e-015 0.0150186 -8.97682e-005 -6.22736e-007 6.75868e-015 1.59028e-015 -0 3.77691e-015 0 2.38542e-015 0.0190283 -0.00119296 -6.00889e-005 3.18055e-015 3.18055e-015 1.59028e-015 3.77691e-015 0 2.38542e-015 0.0122601 -0.00324554 -0.000676468 -1.59028e-015 -1.59028e-015 1.59028e-015 3.77691e-015 0 2.38542e-015 5.96354e-016 0 -0 7.35503e-015 0 -1.59028e-015 -45.9518 -26.5782 -33.5193 -31.0826 68.2575 32.6459 -30.6603 42.9999 31.334 -4.96962e-016 9.93923e-017 3.18055e-015 45.9452 -26.5816 33.484 31.0011 68.2754 -32.585 30.6328 43.0351 -31.3007 2.28032e-008 7.61033e-009 1.93414e-007 
-1.08088 3.89549 -48.846 -179.651 88.9936 -0.355027 -0.0317238 1.15522 -0.278422 -0.0578488 2.31064 -0.556371 -0.0578488 2.31059 -0.556371 -4.64439e-006 43.9984 6.86411e-006 -1.65154e-007 -69.3657 -2.5616e-007 -16.5869 -2.17033 20.6973 -0.0909006 1.98929 -78.3606 -17.983 -7.0722 -51.7064 -39.4105 -32.266 -41.1762 -9.34288e-015 -3.18055e-015 1.59028e-015 1.98785e-016 -3.18055e-015 -7.95139e-016 -5.96354e-016 -3.18055e-015 2.38542e-015 -9.34288e-015 -3.18055e-015 1.59028e-015 -0.0146505 -8.81391e-005 -6.33693e-007 5.36719e-015 1.59028e-015 -7.95139e-016 -9.34288e-015 -3.18055e-015 1.59028e-015 -0.0187888 -0.0011777 5.86553e-005 -2.5842e-015 -3.18055e-015 7.95139e-016 -9.34288e-015 -3.18055e-015 1.59028e-015 -0.012346 -0.003267 0.000682844 -1.55052e-014 0 -7.95139e-016 -9.34288e-015 -3.18055e-015 1.59028e-015 1.98785e-016 -3.18055e-015 -7.95139e-016 -5.96354e-016 -3.18055e-015 2.38542e-015 16.5212 -2.45861 -20.6086 0.0514396 1.98609 78.1808 17.8877 -7.2255 51.4042 39.9591 -31.8944 41.1226 1.59028e-015 -3.18055e-015 -0 2.15676e-006 5.15275e-007 4.57934e-007 1.08131e-006 2.30301e-007 1.54116e-007 1.59028e-015 -3.18055e-015 -0 0.0150075 -9.20455e-005 7.05659e-007 8.15017e-015 3.18055e-015 3.97569e-015 1.59028e-015 -3.18055e-015 -0 0.0189666 -0.00118984 -6.11595e-005 1.07897e-006 2.30474e-007 1.54074e-007 1.59028e-015 -3.18055e-015 -0 0.012296 -0.00325301 -0.000677009 1.0798e-006 2.30726e-007 1.54144e-007 1.59028e-015 -3.18055e-015 -0 2.15676e-006 5.15275e-007 4.57934e-007 1.08131e-006 2.30301e-007 1.54116e-007 -45.9518 -26.5782 -33.5193 -31.0826 68.2575 32.6458 -30.6603 42.9999 31.334 -5.46658e-016 -1.98785e-016 3.18055e-015 45.9452 -26.5816 33.484 31.0011 68.2754 -32.585 30.6328 43.0351 -31.3007 2.28032e-008 7.61033e-009 1.93414e-007 
